<svg width="54" height="327" viewBox="0 0 54 327" fill="none" xmlns="http://www.w3.org/2000/svg">
<circle r="3.80814" transform="matrix(1 0 0 -1 3.80814 323.192)" fill="black" fill-opacity="0.1"/>
<circle r="3.80814" transform="matrix(1 0 0 -1 3.80814 208.948)" fill="black" fill-opacity="0.1"/>
<circle r="3.80814" transform="matrix(1 0 0 -1 3.80814 300.343)" fill="black" fill-opacity="0.1"/>
<circle r="3.80814" transform="matrix(1 0 0 -1 3.80814 186.099)" fill="black" fill-opacity="0.1"/>
<circle r="3.80814" transform="matrix(1 0 0 -1 3.80814 163.25)" fill="black" fill-opacity="0.1"/>
<circle r="3.80814" transform="matrix(1 0 0 -1 3.80814 140.401)" fill="black" fill-opacity="0.1"/>
<circle r="3.80814" transform="matrix(1 0 0 -1 3.80814 231.797)" fill="black" fill-opacity="0.1"/>
<circle r="3.80814" transform="matrix(1 0 0 -1 3.80814 117.553)" fill="black" fill-opacity="0.1"/>
<circle r="3.80814" transform="matrix(1 0 0 -1 19.4244 323.192)" fill="black" fill-opacity="0.1"/>
<circle r="3.80814" transform="matrix(1 0 0 -1 19.4244 208.948)" fill="black" fill-opacity="0.1"/>
<circle r="3.80814" transform="matrix(1 0 0 -1 19.4244 94.7036)" fill="black" fill-opacity="0.1"/>
<circle r="3.80814" transform="matrix(1 0 0 -1 19.4244 300.343)" fill="black" fill-opacity="0.1"/>
<circle r="3.80814" transform="matrix(1 0 0 -1 19.4244 186.099)" fill="black" fill-opacity="0.1"/>
<circle r="3.80814" transform="matrix(1 0 0 -1 19.4244 71.8548)" fill="black" fill-opacity="0.1"/>
<circle r="3.80814" transform="matrix(1 0 0 -1 19.4244 277.494)" fill="black" fill-opacity="0.1"/>
<circle r="3.80814" transform="matrix(1 0 0 -1 19.4244 163.25)" fill="black" fill-opacity="0.1"/>
<circle r="3.80814" transform="matrix(1 0 0 -1 19.4244 254.645)" fill="black" fill-opacity="0.1"/>
<circle r="3.80814" transform="matrix(1 0 0 -1 19.4244 140.401)" fill="black" fill-opacity="0.1"/>
<circle r="3.80814" transform="matrix(1 0 0 -1 19.4244 231.797)" fill="black" fill-opacity="0.1"/>
<circle r="3.80814" transform="matrix(1 0 0 -1 19.4244 117.553)" fill="black" fill-opacity="0.1"/>
<circle r="3.80814" transform="matrix(1 0 0 -1 19.4244 3.30838)" fill="black" fill-opacity="0.1"/>
<circle r="3.80814" transform="matrix(1 0 0 -1 35.0407 323.192)" fill="black" fill-opacity="0.1"/>
<circle r="3.80814" transform="matrix(1 0 0 -1 35.0407 208.948)" fill="black" fill-opacity="0.1"/>
<circle r="3.80814" transform="matrix(1 0 0 -1 35.0407 94.7036)" fill="black" fill-opacity="0.1"/>
<circle r="3.80814" transform="matrix(1 0 0 -1 35.0407 300.343)" fill="black" fill-opacity="0.1"/>
<circle r="3.80814" transform="matrix(1 0 0 -1 35.0407 186.099)" fill="black" fill-opacity="0.1"/>
<circle r="3.80814" transform="matrix(1 0 0 -1 35.0407 71.8548)" fill="black" fill-opacity="0.1"/>
<circle r="3.80814" transform="matrix(1 0 0 -1 35.0407 277.494)" fill="black" fill-opacity="0.1"/>
<circle r="3.80814" transform="matrix(1 0 0 -1 35.0407 163.25)" fill="black" fill-opacity="0.1"/>
<circle r="3.80814" transform="matrix(1 0 0 -1 35.0407 49.006)" fill="black" fill-opacity="0.1"/>
<circle r="3.80814" transform="matrix(1 0 0 -1 35.0407 254.645)" fill="black" fill-opacity="0.1"/>
<circle r="3.80814" transform="matrix(1 0 0 -1 35.0407 140.401)" fill="black" fill-opacity="0.1"/>
<circle r="3.80814" transform="matrix(1 0 0 -1 35.0407 26.1572)" fill="black" fill-opacity="0.1"/>
<circle r="3.80814" transform="matrix(1 0 0 -1 35.0407 231.797)" fill="black" fill-opacity="0.1"/>
<circle r="3.80814" transform="matrix(1 0 0 -1 35.0407 117.553)" fill="black" fill-opacity="0.1"/>
<circle r="3.80814" transform="matrix(1 0 0 -1 35.0407 3.30838)" fill="black" fill-opacity="0.1"/>
<circle r="3.80814" transform="matrix(1 0 0 -1 50.657 323.192)" fill="black" fill-opacity="0.1"/>
<circle r="3.80814" transform="matrix(1 0 0 -1 50.657 208.948)" fill="black" fill-opacity="0.1"/>
<circle r="3.80814" transform="matrix(1 0 0 -1 50.657 94.7036)" fill="black" fill-opacity="0.1"/>
<circle r="3.80814" transform="matrix(1 0 0 -1 50.657 300.343)" fill="black" fill-opacity="0.1"/>
<circle r="3.80814" transform="matrix(1 0 0 -1 50.657 186.099)" fill="black" fill-opacity="0.1"/>
<circle r="3.80814" transform="matrix(1 0 0 -1 50.657 71.8548)" fill="black" fill-opacity="0.1"/>
<circle r="3.80814" transform="matrix(1 0 0 -1 50.657 277.494)" fill="black" fill-opacity="0.1"/>
<circle r="3.80814" transform="matrix(1 0 0 -1 50.657 163.25)" fill="black" fill-opacity="0.1"/>
<circle r="3.80814" transform="matrix(1 0 0 -1 50.657 49.006)" fill="black" fill-opacity="0.1"/>
<circle r="3.80814" transform="matrix(1 0 0 -1 50.657 254.645)" fill="black" fill-opacity="0.1"/>
<circle r="3.80814" transform="matrix(1 0 0 -1 50.657 140.401)" fill="black" fill-opacity="0.1"/>
<circle r="3.80814" transform="matrix(1 0 0 -1 50.657 26.1572)" fill="black" fill-opacity="0.1"/>
<circle r="3.80814" transform="matrix(1 0 0 -1 50.657 231.797)" fill="black" fill-opacity="0.1"/>
<circle r="3.80814" transform="matrix(1 0 0 -1 50.657 117.553)" fill="black" fill-opacity="0.1"/>
<circle r="3.80814" transform="matrix(1 0 0 -1 50.657 3.30838)" fill="black" fill-opacity="0.1"/>
</svg>
