<svg width="54" height="327" viewBox="0 0 54 327" fill="none" xmlns="http://www.w3.org/2000/svg">
<circle r="3.80814" transform="matrix(-1 0 0 1 50.1919 3.80814)" fill="black" fill-opacity="0.1"/>
<circle r="3.80814" transform="matrix(-1 0 0 1 50.1919 118.052)" fill="black" fill-opacity="0.1"/>
<circle r="3.80814" transform="matrix(-1 0 0 1 50.1919 26.657)" fill="black" fill-opacity="0.1"/>
<circle r="3.80814" transform="matrix(-1 0 0 1 50.1919 140.901)" fill="black" fill-opacity="0.1"/>
<circle r="3.80814" transform="matrix(-1 0 0 1 50.1919 163.75)" fill="black" fill-opacity="0.1"/>
<circle r="3.80814" transform="matrix(-1 0 0 1 50.1919 186.599)" fill="black" fill-opacity="0.1"/>
<circle r="3.80814" transform="matrix(-1 0 0 1 50.1919 95.2034)" fill="black" fill-opacity="0.1"/>
<circle r="3.80814" transform="matrix(-1 0 0 1 50.1919 209.447)" fill="black" fill-opacity="0.1"/>
<circle r="3.80814" transform="matrix(-1 0 0 1 34.5757 3.80814)" fill="black" fill-opacity="0.1"/>
<circle r="3.80814" transform="matrix(-1 0 0 1 34.5757 118.052)" fill="black" fill-opacity="0.1"/>
<circle r="3.80814" transform="matrix(-1 0 0 1 34.5757 232.296)" fill="black" fill-opacity="0.1"/>
<circle r="3.80814" transform="matrix(-1 0 0 1 34.5757 26.657)" fill="black" fill-opacity="0.1"/>
<circle r="3.80814" transform="matrix(-1 0 0 1 34.5757 140.901)" fill="black" fill-opacity="0.1"/>
<circle r="3.80814" transform="matrix(-1 0 0 1 34.5757 255.145)" fill="black" fill-opacity="0.1"/>
<circle r="3.80814" transform="matrix(-1 0 0 1 34.5757 49.5058)" fill="black" fill-opacity="0.1"/>
<circle r="3.80814" transform="matrix(-1 0 0 1 34.5757 163.75)" fill="black" fill-opacity="0.1"/>
<circle r="3.80814" transform="matrix(-1 0 0 1 34.5757 72.3546)" fill="black" fill-opacity="0.1"/>
<circle r="3.80814" transform="matrix(-1 0 0 1 34.5757 186.599)" fill="black" fill-opacity="0.1"/>
<circle r="3.80814" transform="matrix(-1 0 0 1 34.5757 95.2034)" fill="black" fill-opacity="0.1"/>
<circle r="3.80814" transform="matrix(-1 0 0 1 34.5757 209.447)" fill="black" fill-opacity="0.1"/>
<circle r="3.80814" transform="matrix(-1 0 0 1 34.5757 323.692)" fill="black" fill-opacity="0.1"/>
<circle r="3.80814" transform="matrix(-1 0 0 1 18.9594 3.80814)" fill="black" fill-opacity="0.1"/>
<circle r="3.80814" transform="matrix(-1 0 0 1 18.9594 118.052)" fill="black" fill-opacity="0.1"/>
<circle r="3.80814" transform="matrix(-1 0 0 1 18.9594 232.296)" fill="black" fill-opacity="0.1"/>
<circle r="3.80814" transform="matrix(-1 0 0 1 18.9594 26.657)" fill="black" fill-opacity="0.1"/>
<circle r="3.80814" transform="matrix(-1 0 0 1 18.9594 140.901)" fill="black" fill-opacity="0.1"/>
<circle r="3.80814" transform="matrix(-1 0 0 1 18.9594 255.145)" fill="black" fill-opacity="0.1"/>
<circle r="3.80814" transform="matrix(-1 0 0 1 18.9594 49.5058)" fill="black" fill-opacity="0.1"/>
<circle r="3.80814" transform="matrix(-1 0 0 1 18.9594 163.75)" fill="black" fill-opacity="0.1"/>
<circle r="3.80814" transform="matrix(-1 0 0 1 18.9594 277.994)" fill="black" fill-opacity="0.1"/>
<circle r="3.80814" transform="matrix(-1 0 0 1 18.9594 72.3546)" fill="black" fill-opacity="0.1"/>
<circle r="3.80814" transform="matrix(-1 0 0 1 18.9594 186.599)" fill="black" fill-opacity="0.1"/>
<circle r="3.80814" transform="matrix(-1 0 0 1 18.9594 300.843)" fill="black" fill-opacity="0.1"/>
<circle r="3.80814" transform="matrix(-1 0 0 1 18.9594 95.2034)" fill="black" fill-opacity="0.1"/>
<circle r="3.80814" transform="matrix(-1 0 0 1 18.9594 209.447)" fill="black" fill-opacity="0.1"/>
<circle r="3.80814" transform="matrix(-1 0 0 1 18.9594 323.692)" fill="black" fill-opacity="0.1"/>
<circle r="3.80814" transform="matrix(-1 0 0 1 3.34299 3.80814)" fill="black" fill-opacity="0.1"/>
<circle r="3.80814" transform="matrix(-1 0 0 1 3.34299 118.052)" fill="black" fill-opacity="0.1"/>
<circle r="3.80814" transform="matrix(-1 0 0 1 3.34299 232.296)" fill="black" fill-opacity="0.1"/>
<circle r="3.80814" transform="matrix(-1 0 0 1 3.34299 26.657)" fill="black" fill-opacity="0.1"/>
<circle r="3.80814" transform="matrix(-1 0 0 1 3.34299 140.901)" fill="black" fill-opacity="0.1"/>
<circle r="3.80814" transform="matrix(-1 0 0 1 3.34299 255.145)" fill="black" fill-opacity="0.1"/>
<circle r="3.80814" transform="matrix(-1 0 0 1 3.34299 49.5058)" fill="black" fill-opacity="0.1"/>
<circle r="3.80814" transform="matrix(-1 0 0 1 3.34299 163.75)" fill="black" fill-opacity="0.1"/>
<circle r="3.80814" transform="matrix(-1 0 0 1 3.34299 277.994)" fill="black" fill-opacity="0.1"/>
<circle r="3.80814" transform="matrix(-1 0 0 1 3.34299 72.3546)" fill="black" fill-opacity="0.1"/>
<circle r="3.80814" transform="matrix(-1 0 0 1 3.34299 186.599)" fill="black" fill-opacity="0.1"/>
<circle r="3.80814" transform="matrix(-1 0 0 1 3.34299 300.843)" fill="black" fill-opacity="0.1"/>
<circle r="3.80814" transform="matrix(-1 0 0 1 3.34299 95.2034)" fill="black" fill-opacity="0.1"/>
<circle r="3.80814" transform="matrix(-1 0 0 1 3.34299 209.447)" fill="black" fill-opacity="0.1"/>
<circle r="3.80814" transform="matrix(-1 0 0 1 3.34299 323.692)" fill="black" fill-opacity="0.1"/>
</svg>
